HIERARCHY
ROOT Hips
{
 OFFSET 0.000000 0.000000 0.000000
 CHANNELS 6 Xposition Yposition Zposition Yrotation Xrotation Zrotation
 JOINT Chest
 {
  OFFSET 0.000000 9.588913 -0.003946
  CHANNELS 3 Yrotation Xrotation Zrotation
  JOINT Chest2
  {
   OFFSET 0.000000 9.541882 0.008053
   CHANNELS 3 Yrotation Xrotation Zrotation
   JOINT Chest3
   {
    OFFSET 0.000000 9.501360 0.000000
    CHANNELS 3 Yrotation Xrotation Zrotation
    JOINT Chest4
    {
     OFFSET 0.000000 9.491660 0.000000
     CHANNELS 3 Yrotation Xrotation Zrotation
     JOINT Neck
     {
      OFFSET 0.000000 14.331917 0.000000
      CHANNELS 3 Yrotation Xrotation Zrotation
      JOINT Head
      {
       OFFSET 0.000000 8.884799 0.017034
       CHANNELS 3 Yrotation Xrotation Zrotation
       End Site
       {
        OFFSET 0.000000 16.896195 0.008993
       }
      }
     }
     JOINT RightCollar
     {
      OFFSET -2.923010 9.499495 0.000000
      CHANNELS 3 Yrotation Xrotation Zrotation
      JOINT RightShoulder
      {
       OFFSET -13.795216 0.000000 0.000000
       CHANNELS 3 Yrotation Xrotation Zrotation
       JOINT RightElbow
       {
        OFFSET -30.272209 0.000000 0.000000
        CHANNELS 3 Yrotation Xrotation Zrotation
        JOINT RightWrist
        {
         OFFSET -24.478199 0.000000 0.000000
         CHANNELS 3 Yrotation Xrotation Zrotation
         End Site
         {
          OFFSET -18.090752 0.000000 0.000000
         }
        }
       }
      }
     }
     JOINT LeftCollar
     {
      OFFSET 2.923010 9.499495 0.000000
      CHANNELS 3 Yrotation Xrotation Zrotation
      JOINT LeftShoulder
      {
       OFFSET 13.795216 0.000000 0.000000
       CHANNELS 3 Yrotation Xrotation Zrotation
       JOINT LeftElbow
       {
        OFFSET 30.272209 0.000000 0.000000
        CHANNELS 3 Yrotation Xrotation Zrotation
        JOINT LeftWrist
        {
         OFFSET 24.478199 0.000000 0.000000
         CHANNELS 3 Yrotation Xrotation Zrotation
         End Site
         {
          OFFSET 18.090752 0.000000 0.000000
         }
        }
       }
      }
     }
    }
   }
  }
 }
 JOINT RightHip
 {
  OFFSET -7.826875 0.019532 0.001973
  CHANNELS 3 Yrotation Xrotation Zrotation
  JOINT RightKnee
  {
   OFFSET 0.000000 -40.546152 -0.001885
   CHANNELS 3 Yrotation Xrotation Zrotation
   JOINT RightAnkle
   {
    OFFSET 0.000000 -39.417092 -0.003189
    CHANNELS 3 Yrotation Xrotation Zrotation
    JOINT RightToe
    {
     OFFSET 0.000000 -7.579396 17.243563
     CHANNELS 3 Yrotation Xrotation Zrotation
     End Site
     {
      OFFSET 0.000000 -1.500329 6.694466
     }
    }
   }
  }
 }
 JOINT LeftHip
 {
  OFFSET 7.826875 0.019532 0.001973
  CHANNELS 3 Yrotation Xrotation Zrotation
  JOINT LeftKnee
  {
   OFFSET 0.000000 -40.546152 -0.001885
   CHANNELS 3 Yrotation Xrotation Zrotation
   JOINT LeftAnkle
   {
    OFFSET 0.000000 -39.417092 -0.003189
    CHANNELS 3 Yrotation Xrotation Zrotation
    JOINT LeftToe
    {
     OFFSET 0.000000 -7.579396 17.243563
     CHANNELS 3 Yrotation Xrotation Zrotation
     End Site
     {
      OFFSET 0.000000 -1.500329 6.694466
     }
    }
   }
  }
 }
}
MOTION
Frames: 5
Frame Time: 0.008333
0.000000 87.345680 0.000000 0.000000 -5.767889 0.000000 0.000000 11.653876 0.000000 0.000000 -5.885988 0.000000 0.000000 -0.000000 0.000000 0.000000 -0.000000 0.000000 0.000000 12.528808 0.000000 0.000000 0.711711 0.000000 0.000000 -0.000000 0.000000 0.000000 -0.000000 0.000000 2.309063 -0.000000 0.000000 -2.309063 -0.000000 -0.000000 0.000000 -0.000000 0.000000 0.000000 0.000000 0.000000 -2.309063 0.000000 0.000000 2.309063 -0.000000 0.000000 0.000000 8.520374 0.000000 0.000000 1.905768 0.000000 -0.000000 -4.658254 0.000000 0.000000 -0.000000 0.000000 0.000000 8.520374 0.000000 0.000000 1.905768 0.000000 -0.000000 -4.658254 0.000000 0.000000 -0.000000 0.000000
-9.011319 29.661773 -7.324661 134.038828 -27.335873 -2.117160 1.510066 28.757463 5.275893 0.082269 5.430358 0.796370 0.163167 8.507782 1.255158 0.937410 23.202243 3.625704 0.001880 9.844853 -1.769585 0.817925 -17.490906 -3.438244 9.167234 -12.220318 -12.345600 3.260556 -43.504352 84.915129 41.134072 -5.222588 -4.607272 1.054564 -16.731948 -7.214585 -9.554223 -13.594517 2.167524 -5.718325 -42.039824 -95.760700 -36.535591 -4.260125 -11.696121 1.873386 11.909758 17.451082 -21.908633 -62.558267 12.202074 -179.471625 31.762954 175.603220 12.764260 -51.992005 -18.163653 -0.275710 0.973126 -0.064258 17.871429 -65.988270 -9.437632 151.690862 26.769233 -178.749349 22.806914 -41.544615 -25.866643 -0.032155 -0.289635 0.050464
-9.011791 29.650699 -7.323421 134.047186 -27.358255 -2.102882 1.513152 28.759825 5.279794 0.082299 5.432852 0.796897 0.163245 8.511412 1.255951 0.937706 23.206040 3.627066 -0.017336 9.831268 -1.770493 0.781474 -17.516684 -3.431558 9.160959 -12.220779 -12.360590 3.232669 -43.504728 84.938334 41.194577 -5.231144 -4.563580 1.161793 -16.711712 -7.292824 -9.532556 -13.590275 2.154808 -5.649048 -42.071003 -95.846786 -36.521919 -4.274488 -11.735639 1.770204 11.895061 17.502765 -21.891551 -62.559582 12.193726 -179.456960 31.740569 175.606521 12.725306 -51.992649 -18.151061 -0.270468 0.962723 -0.056304 17.881384 -65.975866 -9.473993 151.675703 26.761429 -178.756585 22.845413 -41.520629 -25.925807 -0.029450 -0.302631 0.050999
-9.012680 29.639271 -7.325567 134.071004 -27.397771 -2.071867 1.484674 28.781523 5.254765 0.082168 5.435263 0.797196 0.163060 8.514927 1.256381 0.937134 23.209821 3.627342 -0.033544 9.818670 -1.770521 0.750418 -17.540557 -3.424508 9.156994 -12.223134 -12.382033 3.216320 -43.501120 84.956627 41.246305 -5.255352 -4.525324 1.285115 -16.688448 -7.380172 -9.510391 -13.584920 2.140271 -5.594844 -42.104137 -95.919813 -36.507224 -4.273008 -11.763360 1.657222 11.874501 17.558228 -21.839034 -62.552617 12.122456 -179.437120 31.718417 175.611251 12.678228 -51.985035 -18.140162 -0.242744 0.940665 -0.040904 17.907321 -65.938747 -9.541465 151.663566 26.755322 -178.760935 22.856584 -41.508678 -25.962725 -0.028663 -0.314725 0.048092
-9.011972 29.625560 -7.321120 134.077358 -27.418005 -2.058798 1.482065 28.784280 5.255424 0.082133 5.437947 0.797180 0.163012 8.518845 1.256316 0.936750 23.214161 3.626187 -0.047161 9.808251 -1.768491 0.723374 -17.560357 -3.414586 9.152273 -12.232434 -12.400891 3.212524 -43.493284 84.966359 41.291699 -5.294270 -4.491418 1.411472 -16.669345 -7.466473 -9.489508 -13.582103 2.129728 -5.566610 -42.134816 -95.972959 -36.498237 -4.266416 -11.778668 1.543771 11.850437 17.612162 -21.829491 -62.554196 12.110083 -179.416062 31.697184 175.621225 12.677878 -51.993115 -18.158789 -0.229965 0.939931 -0.034392 17.908632 -65.931916 -9.556534 151.657770 26.745950 -178.748248 22.854785 -41.507328 -25.986081 -0.032936 -0.326804 0.039947
